<mxfile host="app.diagrams.net" agent="Mozilla/5.0 (Windows NT 10.0; Win64; x64) AppleWebKit/537.36 (KHTML, like Gecko) Chrome/136.0.0.0 Safari/537.36" version="27.0.5">
  <diagram name="Page-1" id="wvzdkILFmyBjbfjsBjTj">
    <mxGraphModel dx="1042" dy="657" grid="0" gridSize="9" guides="1" tooltips="1" connect="1" arrows="1" fold="1" page="1" pageScale="1" pageWidth="850" pageHeight="1100" math="0" shadow="0">
      <root>
        <mxCell id="0" />
        <mxCell id="1" parent="0" />
        <mxCell id="Tz7y7nU6ju0FlNoBY4Tl-4" style="edgeStyle=orthogonalEdgeStyle;rounded=0;orthogonalLoop=1;jettySize=auto;html=1;" parent="1" source="Tz7y7nU6ju0FlNoBY4Tl-1" edge="1">
          <mxGeometry relative="1" as="geometry">
            <mxPoint x="170" y="275" as="targetPoint" />
          </mxGeometry>
        </mxCell>
        <mxCell id="Tz7y7nU6ju0FlNoBY4Tl-1" value="" style="points=[];aspect=fixed;html=1;align=center;shadow=0;dashed=0;fillColor=#FF6A00;strokeColor=none;shape=mxgraph.alibaba_cloud.user;" parent="1" vertex="1">
          <mxGeometry x="40" y="250" width="50" height="50" as="geometry" />
        </mxCell>
        <mxCell id="Tz7y7nU6ju0FlNoBY4Tl-2" value="&lt;b&gt;Leader&lt;/b&gt;" style="text;html=1;align=center;verticalAlign=middle;resizable=0;points=[];autosize=1;strokeColor=none;fillColor=none;" parent="1" vertex="1">
          <mxGeometry x="32" y="299" width="66" height="33" as="geometry" />
        </mxCell>
        <mxCell id="Tz7y7nU6ju0FlNoBY4Tl-5" value="Query" style="text;html=1;align=center;verticalAlign=middle;resizable=0;points=[];autosize=1;strokeColor=none;fillColor=none;" parent="1" vertex="1">
          <mxGeometry x="90" y="250" width="60" height="30" as="geometry" />
        </mxCell>
        <mxCell id="Tz7y7nU6ju0FlNoBY4Tl-8" value="" style="html=1;verticalLabelPosition=bottom;align=center;labelBackgroundColor=#ffffff;verticalAlign=top;strokeWidth=2;strokeColor=#0080F0;shadow=0;dashed=0;shape=mxgraph.ios7.icons.microphone;" parent="1" vertex="1">
          <mxGeometry x="115.48" y="285" width="12" height="20" as="geometry" />
        </mxCell>
        <mxCell id="Tz7y7nU6ju0FlNoBY4Tl-9" value="" style="rounded=0;whiteSpace=wrap;html=1;" parent="1" vertex="1">
          <mxGeometry x="170" y="245" width="100" height="60" as="geometry" />
        </mxCell>
        <mxCell id="Tz7y7nU6ju0FlNoBY4Tl-10" value="" style="sketch=0;points=[[0,0,0],[0.25,0,0],[0.5,0,0],[0.75,0,0],[1,0,0],[0,1,0],[0.25,1,0],[0.5,1,0],[0.75,1,0],[1,1,0],[0,0.25,0],[0,0.5,0],[0,0.75,0],[1,0.25,0],[1,0.5,0],[1,0.75,0]];outlineConnect=0;fontColor=#232F3E;fillColor=#01A88D;strokeColor=#ffffff;dashed=0;verticalLabelPosition=bottom;verticalAlign=top;align=center;html=1;fontSize=12;fontStyle=0;aspect=fixed;shape=mxgraph.aws4.resourceIcon;resIcon=mxgraph.aws4.augmented_ai;" parent="1" vertex="1">
          <mxGeometry x="180" y="252.5" width="45" height="45" as="geometry" />
        </mxCell>
        <mxCell id="Tz7y7nU6ju0FlNoBY4Tl-16" style="edgeStyle=orthogonalEdgeStyle;rounded=0;orthogonalLoop=1;jettySize=auto;html=1;" parent="1" edge="1">
          <mxGeometry relative="1" as="geometry">
            <mxPoint x="324" y="280.2" as="targetPoint" />
            <mxPoint x="269" y="279.99999999999994" as="sourcePoint" />
          </mxGeometry>
        </mxCell>
        <mxCell id="Tz7y7nU6ju0FlNoBY4Tl-11" value="" style="sketch=0;pointerEvents=1;shadow=0;dashed=0;html=1;strokeColor=none;fillColor=#005F4B;labelPosition=center;verticalLabelPosition=bottom;verticalAlign=top;align=center;outlineConnect=0;shape=mxgraph.veeam2.task_list;" parent="1" vertex="1">
          <mxGeometry x="225" y="252.5" width="39" height="44.5" as="geometry" />
        </mxCell>
        <mxCell id="Tz7y7nU6ju0FlNoBY4Tl-12" value="&lt;b&gt;Query Analyzer&amp;nbsp;&lt;/b&gt;&lt;div&gt;&lt;b&gt;crew&lt;/b&gt;&lt;/div&gt;" style="text;html=1;align=center;verticalAlign=middle;resizable=0;points=[];autosize=1;strokeColor=none;fillColor=none;" parent="1" vertex="1">
          <mxGeometry x="159.5" y="305" width="121" height="44" as="geometry" />
        </mxCell>
        <mxCell id="Tz7y7nU6ju0FlNoBY4Tl-23" style="edgeStyle=orthogonalEdgeStyle;rounded=0;orthogonalLoop=1;jettySize=auto;html=1;" parent="1" source="Tz7y7nU6ju0FlNoBY4Tl-13" edge="1">
          <mxGeometry relative="1" as="geometry">
            <mxPoint x="306" y="123" as="targetPoint" />
          </mxGeometry>
        </mxCell>
        <mxCell id="Tz7y7nU6ju0FlNoBY4Tl-13" value="" style="image;html=1;image=img/lib/atlassian/Jira_Logo.svg;" parent="1" vertex="1">
          <mxGeometry x="180" y="33" width="55" height="50" as="geometry" />
        </mxCell>
        <mxCell id="Tz7y7nU6ju0FlNoBY4Tl-14" value="&lt;b&gt;JIRA BOARDS&lt;/b&gt;" style="text;html=1;align=center;verticalAlign=middle;resizable=0;points=[];autosize=1;strokeColor=none;fillColor=none;" parent="1" vertex="1">
          <mxGeometry x="154" width="110" height="33" as="geometry" />
        </mxCell>
        <mxCell id="Tz7y7nU6ju0FlNoBY4Tl-15" value="" style="aspect=fixed;sketch=0;html=1;dashed=0;whitespace=wrap;verticalLabelPosition=bottom;verticalAlign=top;fillColor=#2875E2;strokeColor=#ffffff;points=[[0.005,0.63,0],[0.1,0.2,0],[0.9,0.2,0],[0.5,0,0],[0.995,0.63,0],[0.72,0.99,0],[0.5,1,0],[0.28,0.99,0]];shape=mxgraph.kubernetes.icon2;kubernetesLabel=1;prIcon=api" parent="1" vertex="1">
          <mxGeometry x="279" y="126" width="50" height="48" as="geometry" />
        </mxCell>
        <mxCell id="Tz7y7nU6ju0FlNoBY4Tl-17" value="parameters" style="text;html=1;align=center;verticalAlign=middle;resizable=0;points=[];autosize=1;strokeColor=none;fillColor=none;fontSize=11;" parent="1" vertex="1">
          <mxGeometry x="260.01" y="250" width="81" height="27" as="geometry" />
        </mxCell>
        <mxCell id="Tz7y7nU6ju0FlNoBY4Tl-43" style="edgeStyle=orthogonalEdgeStyle;rounded=0;orthogonalLoop=1;jettySize=auto;html=1;" parent="1" source="Tz7y7nU6ju0FlNoBY4Tl-22" edge="1">
          <mxGeometry relative="1" as="geometry">
            <mxPoint x="333" y="468" as="targetPoint" />
          </mxGeometry>
        </mxCell>
        <mxCell id="Tz7y7nU6ju0FlNoBY4Tl-45" style="edgeStyle=orthogonalEdgeStyle;rounded=0;orthogonalLoop=1;jettySize=auto;html=1;" parent="1" source="Tz7y7nU6ju0FlNoBY4Tl-22" edge="1">
          <mxGeometry relative="1" as="geometry">
            <mxPoint x="396" y="414" as="targetPoint" />
          </mxGeometry>
        </mxCell>
        <mxCell id="Tz7y7nU6ju0FlNoBY4Tl-49" style="edgeStyle=orthogonalEdgeStyle;rounded=0;orthogonalLoop=1;jettySize=auto;html=1;" parent="1" source="Tz7y7nU6ju0FlNoBY4Tl-22" edge="1">
          <mxGeometry relative="1" as="geometry">
            <mxPoint x="441" y="269.875" as="targetPoint" />
          </mxGeometry>
        </mxCell>
        <mxCell id="Tz7y7nU6ju0FlNoBY4Tl-22" value="" style="shape=image;html=1;verticalAlign=top;verticalLabelPosition=bottom;labelBackgroundColor=#ffffff;imageAspect=0;aspect=fixed;image=https://cdn0.iconfinder.com/data/icons/long-shadow-web-icons/512/python-128.png" parent="1" vertex="1">
          <mxGeometry x="329" y="234" width="71.75" height="71.75" as="geometry" />
        </mxCell>
        <mxCell id="Tz7y7nU6ju0FlNoBY4Tl-24" style="edgeStyle=orthogonalEdgeStyle;rounded=0;orthogonalLoop=1;jettySize=auto;html=1;entryX=0.393;entryY=-0.086;entryDx=0;entryDy=0;entryPerimeter=0;" parent="1" edge="1">
          <mxGeometry relative="1" as="geometry">
            <mxPoint x="333" y="163" as="sourcePoint" />
            <mxPoint x="368.19775000000004" y="215.82950000000005" as="targetPoint" />
          </mxGeometry>
        </mxCell>
        <mxCell id="Tz7y7nU6ju0FlNoBY4Tl-25" value="&lt;b&gt;Data Retriever&lt;/b&gt;" style="text;html=1;align=center;verticalAlign=middle;resizable=0;points=[];autosize=1;strokeColor=none;fillColor=none;" parent="1" vertex="1">
          <mxGeometry x="315.38" y="207" width="99" height="27" as="geometry" />
        </mxCell>
        <mxCell id="Tz7y7nU6ju0FlNoBY4Tl-26" value="&lt;b&gt;REST API&lt;/b&gt;" style="text;html=1;align=center;verticalAlign=middle;resizable=0;points=[];autosize=1;strokeColor=none;fillColor=none;" parent="1" vertex="1">
          <mxGeometry x="315" y="126" width="81" height="27" as="geometry" />
        </mxCell>
        <mxCell id="Tz7y7nU6ju0FlNoBY4Tl-29" value="" style="shape=image;html=1;verticalAlign=top;verticalLabelPosition=bottom;labelBackgroundColor=#ffffff;imageAspect=0;aspect=fixed;image=https://cdn3.iconfinder.com/data/icons/cad-database-presentation-spreadsheet-vector-fil-2/512/19-128.png" parent="1" vertex="1">
          <mxGeometry x="304" y="486" width="63" height="63" as="geometry" />
        </mxCell>
        <mxCell id="Tz7y7nU6ju0FlNoBY4Tl-30" value="" style="shape=image;html=1;verticalAlign=top;verticalLabelPosition=bottom;labelBackgroundColor=#ffffff;imageAspect=0;aspect=fixed;image=https://cdn3.iconfinder.com/data/icons/cad-database-presentation-spreadsheet-vector-fil-2/512/19-128.png" parent="1" vertex="1">
          <mxGeometry x="367" y="423" width="63" height="63" as="geometry" />
        </mxCell>
        <mxCell id="Tz7y7nU6ju0FlNoBY4Tl-61" style="edgeStyle=orthogonalEdgeStyle;rounded=0;orthogonalLoop=1;jettySize=auto;html=1;" parent="1" source="Tz7y7nU6ju0FlNoBY4Tl-31" edge="1">
          <mxGeometry relative="1" as="geometry">
            <mxPoint x="621" y="441" as="targetPoint" />
            <Array as="points">
              <mxPoint x="622" y="563" />
            </Array>
          </mxGeometry>
        </mxCell>
        <mxCell id="Tz7y7nU6ju0FlNoBY4Tl-31" value="History.csv" style="text;html=1;align=center;verticalAlign=middle;resizable=0;points=[];autosize=1;strokeColor=none;fillColor=none;" parent="1" vertex="1">
          <mxGeometry x="295" y="549" width="81" height="27" as="geometry" />
        </mxCell>
        <mxCell id="Tz7y7nU6ju0FlNoBY4Tl-57" style="edgeStyle=orthogonalEdgeStyle;rounded=0;orthogonalLoop=1;jettySize=auto;html=1;" parent="1" source="Tz7y7nU6ju0FlNoBY4Tl-32" edge="1">
          <mxGeometry relative="1" as="geometry">
            <mxPoint x="603" y="441" as="targetPoint" />
          </mxGeometry>
        </mxCell>
        <mxCell id="Tz7y7nU6ju0FlNoBY4Tl-32" value="Current.csv&lt;div&gt;&lt;br&gt;&lt;/div&gt;" style="text;html=1;align=center;verticalAlign=middle;resizable=0;points=[];autosize=1;strokeColor=none;fillColor=none;" parent="1" vertex="1">
          <mxGeometry x="360" y="486" width="81" height="45" as="geometry" />
        </mxCell>
        <mxCell id="Tz7y7nU6ju0FlNoBY4Tl-46" value="" style="rounded=0;whiteSpace=wrap;html=1;" parent="1" vertex="1">
          <mxGeometry x="450" y="245.75" width="100" height="60" as="geometry" />
        </mxCell>
        <mxCell id="Tz7y7nU6ju0FlNoBY4Tl-47" value="" style="sketch=0;points=[[0,0,0],[0.25,0,0],[0.5,0,0],[0.75,0,0],[1,0,0],[0,1,0],[0.25,1,0],[0.5,1,0],[0.75,1,0],[1,1,0],[0,0.25,0],[0,0.5,0],[0,0.75,0],[1,0.25,0],[1,0.5,0],[1,0.75,0]];outlineConnect=0;fontColor=#232F3E;fillColor=#01A88D;strokeColor=#ffffff;dashed=0;verticalLabelPosition=bottom;verticalAlign=top;align=center;html=1;fontSize=12;fontStyle=0;aspect=fixed;shape=mxgraph.aws4.resourceIcon;resIcon=mxgraph.aws4.augmented_ai;" parent="1" vertex="1">
          <mxGeometry x="460" y="253.25" width="45" height="45" as="geometry" />
        </mxCell>
        <mxCell id="Tz7y7nU6ju0FlNoBY4Tl-48" value="" style="sketch=0;pointerEvents=1;shadow=0;dashed=0;html=1;strokeColor=none;fillColor=#005F4B;labelPosition=center;verticalLabelPosition=bottom;verticalAlign=top;align=center;outlineConnect=0;shape=mxgraph.veeam2.task_list;" parent="1" vertex="1">
          <mxGeometry x="505" y="253.25" width="39" height="44.5" as="geometry" />
        </mxCell>
        <mxCell id="Tz7y7nU6ju0FlNoBY4Tl-51" style="edgeStyle=orthogonalEdgeStyle;rounded=0;orthogonalLoop=1;jettySize=auto;html=1;" parent="1" source="Tz7y7nU6ju0FlNoBY4Tl-50" edge="1">
          <mxGeometry relative="1" as="geometry">
            <mxPoint x="504" y="396" as="targetPoint" />
          </mxGeometry>
        </mxCell>
        <mxCell id="Tz7y7nU6ju0FlNoBY4Tl-50" value="&lt;b&gt;Pandas Query&amp;nbsp;&lt;/b&gt;&lt;div&gt;&lt;b&gt;crew&lt;/b&gt;&lt;/div&gt;" style="text;html=1;align=center;verticalAlign=middle;resizable=0;points=[];autosize=1;strokeColor=none;fillColor=none;" parent="1" vertex="1">
          <mxGeometry x="450" y="300" width="108" height="45" as="geometry" />
        </mxCell>
        <mxCell id="Tz7y7nU6ju0FlNoBY4Tl-55" style="edgeStyle=orthogonalEdgeStyle;rounded=0;orthogonalLoop=1;jettySize=auto;html=1;" parent="1" source="Tz7y7nU6ju0FlNoBY4Tl-52" edge="1">
          <mxGeometry relative="1" as="geometry">
            <mxPoint x="738" y="288" as="targetPoint" />
            <Array as="points">
              <mxPoint x="739" y="439" />
            </Array>
          </mxGeometry>
        </mxCell>
        <mxCell id="Tz7y7nU6ju0FlNoBY4Tl-65" style="edgeStyle=orthogonalEdgeStyle;rounded=0;orthogonalLoop=1;jettySize=auto;html=1;" parent="1" source="Tz7y7nU6ju0FlNoBY4Tl-52" edge="1">
          <mxGeometry relative="1" as="geometry">
            <mxPoint x="648" y="288" as="targetPoint" />
          </mxGeometry>
        </mxCell>
        <mxCell id="Tz7y7nU6ju0FlNoBY4Tl-52" value="" style="shape=image;html=1;verticalAlign=top;verticalLabelPosition=bottom;labelBackgroundColor=#ffffff;imageAspect=0;aspect=fixed;image=https://cdn0.iconfinder.com/data/icons/long-shadow-web-icons/512/python-128.png" parent="1" vertex="1">
          <mxGeometry x="469.75" y="405" width="68.5" height="68.5" as="geometry" />
        </mxCell>
        <mxCell id="Tz7y7nU6ju0FlNoBY4Tl-53" value="&lt;div&gt;Python Files&lt;/div&gt;" style="text;html=1;align=center;verticalAlign=middle;resizable=0;points=[];autosize=1;strokeColor=none;fillColor=none;" parent="1" vertex="1">
          <mxGeometry x="460" y="468" width="90" height="27" as="geometry" />
        </mxCell>
        <mxCell id="Tz7y7nU6ju0FlNoBY4Tl-56" value="" style="shape=image;html=1;verticalAlign=top;verticalLabelPosition=bottom;labelBackgroundColor=#ffffff;imageAspect=0;aspect=fixed;image=https://cdn2.iconfinder.com/data/icons/boxicons-solid-vol-2/24/bxs-file-txt-128.png" parent="1" vertex="1">
          <mxGeometry x="693" y="202" width="83" height="83" as="geometry" />
        </mxCell>
        <mxCell id="Tz7y7nU6ju0FlNoBY4Tl-62" value="Output" style="text;html=1;align=center;verticalAlign=middle;resizable=0;points=[];autosize=1;strokeColor=none;fillColor=none;" parent="1" vertex="1">
          <mxGeometry x="702" y="180" width="54" height="27" as="geometry" />
        </mxCell>
        <mxCell id="Tz7y7nU6ju0FlNoBY4Tl-66" value="" style="sketch=0;outlineConnect=0;fontColor=#232F3E;gradientColor=none;fillColor=#7AA116;strokeColor=none;dashed=0;verticalLabelPosition=bottom;verticalAlign=top;align=center;html=1;fontSize=12;fontStyle=0;aspect=fixed;pointerEvents=1;shape=mxgraph.aws4.backup_compliance_reporting;" parent="1" vertex="1">
          <mxGeometry x="612" y="207" width="64" height="78" as="geometry" />
        </mxCell>
        <mxCell id="Tz7y7nU6ju0FlNoBY4Tl-67" value="Jira Hygiene Report" style="text;html=1;align=center;verticalAlign=middle;resizable=0;points=[];autosize=1;strokeColor=none;fillColor=none;" parent="1" vertex="1">
          <mxGeometry x="567" y="180" width="126" height="27" as="geometry" />
        </mxCell>
        <mxCell id="1JMZvnydri4SpUSyMIIo-3" style="edgeStyle=orthogonalEdgeStyle;rounded=0;orthogonalLoop=1;jettySize=auto;html=1;" parent="1" source="1JMZvnydri4SpUSyMIIo-1" edge="1">
          <mxGeometry relative="1" as="geometry">
            <mxPoint x="669.2000122070312" y="440.4000549316406" as="targetPoint" />
          </mxGeometry>
        </mxCell>
        <mxCell id="1JMZvnydri4SpUSyMIIo-1" value="" style="sketch=0;pointerEvents=1;shadow=0;dashed=0;html=1;strokeColor=none;fillColor=#505050;labelPosition=center;verticalLabelPosition=bottom;verticalAlign=top;outlineConnect=0;align=center;shape=mxgraph.office.users.csv_file;" parent="1" vertex="1">
          <mxGeometry x="735" y="528" width="83" height="65" as="geometry" />
        </mxCell>
        <mxCell id="1JMZvnydri4SpUSyMIIo-2" value="&lt;b&gt;PTO data&lt;/b&gt;" style="text;html=1;align=center;verticalAlign=middle;resizable=0;points=[];autosize=1;strokeColor=none;fillColor=none;" parent="1" vertex="1">
          <mxGeometry x="741.5" y="593" width="70" height="26" as="geometry" />
        </mxCell>
      </root>
    </mxGraphModel>
  </diagram>
</mxfile>
